<svg width="30" height="30" viewBox="0 0 30 30" fill="none" xmlns="http://www.w3.org/2000/svg">
<path d="M15 6.25324C15.0015 5.75328 14.903 5.25807 14.7103 4.79674C14.5176 4.33541 14.2345 3.91727 13.8779 3.56692C13.5212 3.21657 13.0981 2.94108 12.6334 2.75665C12.1686 2.57222 11.6718 2.48258 11.1719 2.493C10.672 2.50342 10.1793 2.61369 9.7227 2.81732C9.26609 3.02095 8.8548 3.31383 8.51303 3.67874C8.17127 4.04365 7.90592 4.47322 7.7326 4.94218C7.55927 5.41114 7.48148 5.91002 7.50378 6.40949C6.76903 6.59841 6.08691 6.95205 5.50907 7.44363C4.93123 7.9352 4.47283 8.55183 4.16859 9.2468C3.86434 9.94177 3.72223 10.6969 3.75302 11.4549C3.7838 12.2129 3.98668 12.954 4.34628 13.622C3.71401 14.1357 3.21681 14.796 2.89796 15.5457C2.5791 16.2953 2.44823 17.1115 2.51674 17.9232C2.58524 18.735 2.85105 19.5177 3.29104 20.2033C3.73102 20.8889 4.33186 21.4566 5.04128 21.857C4.95368 22.5348 5.00596 23.2233 5.19489 23.8801C5.38382 24.5369 5.7054 25.148 6.13976 25.6757C6.57412 26.2033 7.11205 26.6363 7.72031 26.9479C8.32857 27.2595 8.99425 27.4431 9.67625 27.4874C10.3583 27.5317 11.0421 27.4356 11.6855 27.2053C12.3289 26.9749 12.9183 26.615 13.4172 26.1479C13.9161 25.6809 14.314 25.1164 14.5862 24.4896C14.8585 23.8627 14.9993 23.1867 15 22.5032V6.25324Z" stroke="#003859" stroke-width="1.875" stroke-linecap="round" stroke-linejoin="round"/>
<path d="M15 6.25324C14.9985 5.75328 15.0971 5.25807 15.2898 4.79674C15.4825 4.33541 15.7655 3.91727 16.1222 3.56692C16.4789 3.21657 16.902 2.94108 17.3667 2.75665C17.8314 2.57222 18.3283 2.48258 18.8281 2.493C19.328 2.50342 19.8207 2.61369 20.2773 2.81732C20.734 3.02095 21.1452 3.31383 21.487 3.67874C21.8288 4.04365 22.0941 4.47322 22.2675 4.94218C22.4408 5.41114 22.5186 5.91002 22.4963 6.40949C23.231 6.59841 23.9131 6.95205 24.491 7.44363C25.0688 7.9352 25.5272 8.55183 25.8315 9.2468C26.1357 9.94177 26.2778 10.6969 26.247 11.4549C26.2162 12.2129 26.0134 12.954 25.6538 13.622C26.286 14.1357 26.7832 14.796 27.1021 15.5457C27.421 16.2953 27.5518 17.1115 27.4833 17.9232C27.4148 18.735 27.149 19.5177 26.709 20.2033C26.269 20.8889 25.6682 21.4566 24.9588 21.857C25.0464 22.5348 24.9941 23.2233 24.8052 23.8801C24.6162 24.5369 24.2946 25.148 23.8603 25.6757C23.4259 26.2033 22.888 26.6363 22.2797 26.9479C21.6715 27.2595 21.0058 27.4431 20.3238 27.4874C19.6418 27.5317 18.958 27.4356 18.3145 27.2053C17.6711 26.9749 17.0817 26.615 16.5828 26.1479C16.0839 25.6809 15.686 25.1164 15.4138 24.4896C15.1416 23.8627 15.0007 23.1867 15 22.5032V6.25324Z" stroke="#003859" stroke-width="1.875" stroke-linecap="round" stroke-linejoin="round"/>
<path d="M18.75 16.25C17.7006 15.8808 16.7841 15.2087 16.1167 14.3188C15.4492 13.4288 15.0606 12.3608 15 11.25C14.9394 12.3608 14.5508 13.4288 13.8833 14.3188C13.2159 15.2087 12.2994 15.8808 11.25 16.25" stroke="#003859" stroke-width="1.875" stroke-linecap="round" stroke-linejoin="round"/>
<path d="M21.9988 8.125C22.3013 7.60073 22.4724 7.01102 22.4975 6.40625" stroke="#003859" stroke-width="1.875" stroke-linecap="round" stroke-linejoin="round"/>
<path d="M7.50391 6.40625C7.52863 7.01092 7.69932 7.60062 8.00141 8.125" stroke="#003859" stroke-width="1.875" stroke-linecap="round" stroke-linejoin="round"/>
<path d="M4.34619 13.62C4.57487 13.4338 4.81957 13.2681 5.07744 13.125" stroke="#003859" stroke-width="1.875" stroke-linecap="round" stroke-linejoin="round"/>
<path d="M24.9224 13.125C25.1802 13.2681 25.4249 13.4338 25.6536 13.62" stroke="#003859" stroke-width="1.875" stroke-linecap="round" stroke-linejoin="round"/>
<path d="M7.50001 22.5005C6.63855 22.5009 5.79159 22.2787 5.04126 21.8555" stroke="#003859" stroke-width="1.875" stroke-linecap="round" stroke-linejoin="round"/>
<path d="M24.9587 21.8555C24.2084 22.2787 23.3615 22.5009 22.5 22.5005" stroke="#003859" stroke-width="1.875" stroke-linecap="round" stroke-linejoin="round"/>
</svg>
