<svg xmlns="http://www.w3.org/2000/svg" width="40" height="40" viewBox="0 0 40 40" fill="none">
  <path d="M3.43645 20.5738C3.29755 20.1996 3.29755 19.788 3.43645 19.4138C4.78928 16.1335 7.08564 13.3288 10.0344 11.3553C12.9832 9.38169 16.4515 8.32812 19.9998 8.32812C23.548 8.32812 27.0164 9.38169 29.9652 11.3553C32.9139 13.3288 35.2103 16.1335 36.5631 19.4138C36.702 19.788 36.702 20.1996 36.5631 20.5738C35.2103 23.854 32.9139 26.6587 29.9652 28.6323C27.0164 30.6058 23.548 31.6594 19.9998 31.6594C16.4515 31.6594 12.9832 30.6058 10.0344 28.6323C7.08564 26.6587 4.78928 23.854 3.43645 20.5738Z" stroke="#ABE0FF" stroke-width="3.33333" stroke-linecap="round" stroke-linejoin="round"/>
  <path d="M20 25C22.7614 25 25 22.7614 25 20C25 17.2386 22.7614 15 20 15C17.2386 15 15 17.2386 15 20C15 22.7614 17.2386 25 20 25Z" stroke="#ABE0FF" stroke-width="3.33333" stroke-linecap="round" stroke-linejoin="round"/>
</svg>