<svg width="34" height="34" viewBox="0 0 34 34" fill="none" xmlns="http://www.w3.org/2000/svg">
<path d="M21.2498 2.83594H8.49984C7.74839 2.83594 7.02772 3.13445 6.49637 3.6658C5.96501 4.19715 5.6665 4.91782 5.6665 5.66927V28.3359C5.6665 29.0874 5.96501 29.8081 6.49637 30.3394C7.02772 30.8708 7.74839 31.1693 8.49984 31.1693H25.4998C26.2513 31.1693 26.972 30.8708 27.5033 30.3394C28.0347 29.8081 28.3332 29.0874 28.3332 28.3359V9.91927L21.2498 2.83594Z" stroke="#003859" stroke-width="2.83333" stroke-linecap="round" stroke-linejoin="round"/>
<path d="M19.8335 2.83594V8.5026C19.8335 9.25405 20.132 9.97472 20.6634 10.5061C21.1947 11.0374 21.9154 11.3359 22.6668 11.3359H28.3335" stroke="#003859" stroke-width="2.83333" stroke-linecap="round" stroke-linejoin="round"/>
<path d="M14.1668 12.75H11.3335" stroke="#003859" stroke-width="2.83333" stroke-linecap="round" stroke-linejoin="round"/>
<path d="M22.6668 18.4141H11.3335" stroke="#003859" stroke-width="2.83333" stroke-linecap="round" stroke-linejoin="round"/>
<path d="M22.6668 24.0859H11.3335" stroke="#003859" stroke-width="2.83333" stroke-linecap="round" stroke-linejoin="round"/>
</svg>
