<svg xmlns="http://www.w3.org/2000/svg" width="62" height="62" viewBox="0 0 62 62" fill="none">
  <g clip-path="url(#clip0_1714_2825)">
    <mask id="mask0_1714_2825" style="mask-type:luminance" maskUnits="userSpaceOnUse" x="0" y="0" width="62" height="62">
      <path d="M62 0H0V62H62V0Z" fill="white"/>
    </mask>
    <g mask="url(#mask0_1714_2825)">
      <path d="M56.1615 33.3474C55.4898 31.1257 54.379 29.1882 52.9065 27.6124C51.0207 25.4681 48.5148 23.9956 45.699 23.3498C44.2782 16.8915 40.2998 12.2415 34.6423 10.5106C28.494 8.59897 21.364 10.459 16.8948 15.1348C12.9682 19.2423 11.6765 24.8998 13.2007 30.9191C8.034 32.1849 5.4765 36.4991 5.19234 40.6066C5.1665 40.8907 5.1665 41.1491 5.1665 41.4074C5.1665 46.2641 8.344 51.7149 15.4223 52.2316H42.2373C45.9057 52.2316 49.419 50.8624 52.1057 48.4082C56.3165 44.7141 57.8665 38.9532 56.1615 33.3474Z" fill="#02A1FF"/>
    </g>
  </g>
  <defs>
    <clipPath id="clip0_1714_2825">
      <rect width="62" height="62" fill="white"/>
    </clipPath>
  </defs>
</svg>